<svg width="149" height="97" viewBox="0 0 149 97" fill="none" xmlns="http://www.w3.org/2000/svg">
<path d="M138.021 9.87524H10.6289V86.4093H138.021V9.87524Z" fill="url(#paint0_linear_49_65)"/>
<path d="M35.1408 27.2728L34.7483 26.6528L34.1248 27.0394L2.33772 46.7441L1.9873 46.9614V47.3736V56.4555V56.8674L2.33708 57.0846L33.9214 76.7084L34.5441 77.0951L34.9373 76.4764L40.7352 67.354L41.1511 66.6998L40.4785 66.3141L15.2756 51.8681L40.4836 37.1472L41.1465 36.7601L40.736 36.1115L35.1408 27.2728Z" fill="#820000" stroke="#820000" stroke-width="1.86621"/>
<path d="M34.1535 23.3226L33.761 22.7026L33.1374 23.0892L1.35041 42.7939L1 43.0112V43.4234V52.5053V52.9172L1.34977 53.1344L32.9341 72.7582L33.5568 73.1448L33.95 72.5262L39.7479 63.4038L40.1638 62.7496L39.4912 62.3639L14.2883 47.918L39.4963 33.1971L40.1592 32.8099L39.7487 32.1613L34.1535 23.3226Z" fill="#D40000" stroke="white" stroke-width="1.86621"/>
<path d="M114.262 27.0391L113.631 26.6487L113.242 27.2801L107.566 36.4837L107.163 37.1367L107.83 37.5162L133.071 51.8843L107.821 66.7234L107.146 67.1204L107.58 67.7722L113.377 76.4892L113.775 77.0871L114.385 76.7084L145.969 57.0846L146.319 56.8673V56.4555V47.2925V46.8799L145.968 46.6627L114.262 27.0391Z" fill="#820000" stroke="#820000" stroke-width="1.86621"/>
<path d="M115.249 23.0889L114.618 22.6985L114.229 23.3299L108.553 32.5335L108.15 33.1865L108.817 33.5659L134.058 47.9341L108.808 62.7732L108.133 63.1702L108.567 63.822L114.365 72.5389L114.762 73.1369L115.372 72.7582L146.956 53.1343L147.306 52.9171V52.5053V43.3423V42.9296L146.955 42.7125L115.249 23.0889Z" fill="#D40000" stroke="white" stroke-width="1.86621"/>
<path d="M48.1839 3.9502L86.4237 27.6177V38.669L48.3306 62.3363L41.3379 51.823L73.1226 33.1433L41.3379 15.0505L48.1839 3.9502Z" fill="#820000"/>
<path d="M49.1712 0L87.411 23.6675V34.7188L49.3179 58.3861L42.3252 47.8728L74.1099 29.1931L42.3252 11.1003L49.1712 0Z" fill="white"/>
<path d="M97.6901 38.1799L59.4502 61.8473V72.8989L97.5434 96.5662L104.536 86.0529L72.7513 67.3731L104.536 49.2801L97.6901 38.1799Z" fill="#820000"/>
<path d="M96.7018 34.2297L58.4619 57.8972V68.9487L96.5551 92.616L103.548 82.1027L71.763 63.4229L103.548 45.33L96.7018 34.2297Z" fill="white"/>
<defs>
<linearGradient id="paint0_linear_49_65" x1="-11.6618" y1="-31.0318" x2="115.975" y2="99.8817" gradientUnits="userSpaceOnUse">
<stop stop-color="#D40000"/>
<stop offset="1" stop-color="#AC0101"/>
</linearGradient>
</defs>
</svg>
