<svg width="693" height="97" viewBox="0 0 693 97" fill="none" xmlns="http://www.w3.org/2000/svg">
<path d="M138.021 9.87524H10.6289V86.4093H138.021V9.87524Z" fill="url(#paint0_linear_48_64)"/>
<path d="M35.1408 27.2728L34.7483 26.6528L34.1248 27.0394L2.33772 46.7441L1.9873 46.9614V47.3736V56.4555V56.8674L2.33708 57.0846L33.9214 76.7084L34.5441 77.0951L34.9373 76.4764L40.7352 67.354L41.1511 66.6998L40.4785 66.3141L15.2756 51.8681L40.4836 37.1472L41.1465 36.7601L40.736 36.1115L35.1408 27.2728Z" fill="#820000" stroke="#820000" stroke-width="1.86621"/>
<path d="M34.1535 23.3226L33.761 22.7026L33.1374 23.0892L1.35041 42.7939L1 43.0112V43.4234V52.5053V52.9172L1.34977 53.1344L32.9341 72.7582L33.5568 73.1448L33.95 72.5262L39.7479 63.4038L40.1638 62.7496L39.4912 62.3639L14.2883 47.918L39.4963 33.1971L40.1592 32.8099L39.7487 32.1613L34.1535 23.3226Z" fill="#D40000" stroke="white" stroke-width="1.86621"/>
<path d="M114.262 27.0391L113.631 26.6487L113.242 27.2801L107.566 36.4837L107.163 37.1367L107.83 37.5162L133.071 51.8843L107.821 66.7234L107.146 67.1204L107.58 67.7722L113.377 76.4892L113.775 77.0871L114.385 76.7084L145.969 57.0846L146.319 56.8673V56.4555V47.2925V46.8799L145.968 46.6627L114.262 27.0391Z" fill="#820000" stroke="#820000" stroke-width="1.86621"/>
<path d="M115.249 23.0889L114.618 22.6985L114.229 23.3299L108.553 32.5335L108.15 33.1865L108.817 33.5659L134.058 47.9341L108.808 62.7732L108.133 63.1702L108.567 63.822L114.365 72.5389L114.762 73.1369L115.372 72.7582L146.956 53.1343L147.306 52.9171V52.5053V43.3423V42.9296L146.955 42.7125L115.249 23.0889Z" fill="#D40000" stroke="white" stroke-width="1.86621"/>
<path d="M48.1839 3.9502L86.4237 27.6177V38.669L48.3306 62.3363L41.3379 51.823L73.1226 33.1433L41.3379 15.0505L48.1839 3.9502Z" fill="#820000"/>
<path d="M49.1712 0L87.411 23.6675V34.7188L49.3179 58.3861L42.3252 47.8728L74.1099 29.1931L42.3252 11.1003L49.1712 0Z" fill="white"/>
<path d="M97.6901 38.1799L59.4502 61.8473V72.8989L97.5434 96.5662L104.536 86.0529L72.7513 67.3731L104.536 49.2801L97.6901 38.1799Z" fill="#820000"/>
<path d="M96.7018 34.2297L58.4619 57.8972V68.9487L96.5551 92.616L103.548 82.1027L71.763 63.4229L103.548 45.33L96.7018 34.2297Z" fill="white"/>
<mask id="path-10-inside-1_48_64" fill="white">
<path d="M464.291 59.4141C464.291 61.3712 464.553 62.7901 465.074 63.6708C465.629 64.5515 466.51 65.2204 467.716 65.6769L464.536 75.8538C461.47 75.5602 458.877 74.8914 456.756 73.8478C454.669 72.7714 453.022 71.1567 451.815 69.0039C449.825 71.3852 447.281 73.1628 444.182 74.337C441.083 75.4785 437.919 76.0495 434.69 76.0495C429.341 76.0495 425.068 74.5327 421.871 71.4992C418.707 68.4329 417.125 64.5026 417.125 59.7076C417.125 54.0648 419.327 49.7103 423.73 46.644C428.167 43.5777 434.396 42.0448 442.421 42.0448H449.417V40.0878C449.417 37.3806 448.537 35.3745 446.775 34.0696C445.047 32.7647 442.502 32.1125 439.142 32.1125C437.479 32.1125 435.343 32.3572 432.733 32.8465C430.124 33.303 427.514 33.9718 424.905 34.8525L421.333 24.5776C424.693 23.3055 428.183 22.3431 431.803 21.6909C435.457 21.0387 438.719 20.7124 441.589 20.7124C449.319 20.7124 455.028 22.2942 458.714 25.4584C462.432 28.5897 464.291 33.1238 464.291 39.0602V59.4141ZM440.023 64.9919C441.687 64.9919 443.432 64.5026 445.258 63.5241C447.085 62.5127 448.471 61.0938 449.417 59.2673V50.8518H445.601C441.295 50.8518 438.132 51.5206 436.109 52.8578C434.087 54.1627 433.075 56.0871 433.075 58.6313C433.075 60.6212 433.679 62.1869 434.886 63.3283C436.126 64.4375 437.838 64.9919 440.023 64.9919ZM522.124 71.3525C520.101 72.6574 517.655 73.766 514.785 74.6795C511.914 75.593 508.685 76.0495 505.097 76.0495C498.313 76.0495 493.273 74.3209 489.978 70.8632C486.684 67.3732 485.037 62.6433 485.037 56.6742V44.2466H474.126V33.5803H485.037V22.3271L500.498 20.4678V33.5803H517.231L515.714 44.2466H500.498V56.6742C500.498 59.2512 501.085 61.0939 502.259 62.203C503.433 63.3122 505.309 63.8665 507.886 63.8665C509.713 63.8665 511.376 63.6547 512.876 63.2305C514.41 62.774 515.78 62.203 516.986 61.518L522.124 71.3525ZM569.143 44.6869L568.578 50.0689H574.693V60.2459H567.208L565.348 74.3859H552.578L554.437 60.2459H545.141L543.282 74.3859H530.512L532.273 60.2459H526.451V50.0689H533.643L534.307 44.6869H528.191V34.4611H535.677L537.438 20.5656H550.306L548.398 34.4611H557.743L559.602 20.5656H572.372L570.513 34.4611H576.433V44.6869H569.143ZM546.413 50.0689H555.71L556.373 44.6869H547.077L546.413 50.0689ZM611.008 20.7124C616.358 20.7124 620.908 21.8539 624.659 24.1373C628.41 26.4208 631.281 29.6334 633.271 33.7761C635.26 37.886 636.255 42.7137 636.255 48.2586C636.255 54.0321 635.244 59.0065 633.222 63.1815C631.232 67.3242 628.361 70.5046 624.61 72.7225C620.859 74.9403 616.325 76.0495 611.008 76.0495C605.724 76.0495 601.19 74.9569 597.407 72.7713C593.655 70.5857 590.769 67.4221 588.746 63.2794C586.757 59.1366 585.762 54.1627 585.762 48.3565C585.762 42.8438 586.757 38.0166 588.746 33.8739C590.769 29.7312 593.655 26.502 597.407 24.1862C601.19 21.8705 605.724 20.7124 611.008 20.7124ZM611.008 32.1125C607.844 32.1125 605.496 33.4175 603.963 36.0268C602.462 38.6038 601.712 42.7137 601.712 48.3565C601.712 54.0972 602.462 58.256 603.963 60.833C605.496 63.4101 607.844 64.6983 611.008 64.6983C614.172 64.6983 616.505 63.4101 618.005 60.833C619.538 58.256 620.305 54.0649 620.305 48.2586C620.305 42.6481 619.538 38.5548 618.005 35.9778C616.505 33.4008 614.172 32.1125 611.008 32.1125ZM647.177 74.3859V22.4248H660.681L661.757 28.4429C664.073 25.8336 666.519 23.8927 669.096 22.6206C671.673 21.3485 674.608 20.7124 677.901 20.7124C682.339 20.7124 685.827 22.0662 688.371 24.7734C690.916 27.4805 692.188 31.2969 692.188 36.2225V74.3859H676.727V40.6748C676.727 38.5548 676.58 36.8747 676.286 35.6353C675.993 34.3632 675.474 33.4663 674.721 32.9442C674.006 32.3899 673.008 32.1125 671.738 32.1125C670.662 32.1125 669.602 32.3572 668.558 32.8465C667.547 33.303 666.552 33.9718 665.573 34.8525C664.595 35.7332 663.616 36.7934 662.638 38.0328V74.3859H647.177Z"/>
</mask>
<path d="M464.291 59.4141C464.291 61.3712 464.553 62.7901 465.074 63.6708C465.629 64.5515 466.51 65.2204 467.716 65.6769L464.536 75.8538C461.47 75.5602 458.877 74.8914 456.756 73.8478C454.669 72.7714 453.022 71.1567 451.815 69.0039C449.825 71.3852 447.281 73.1628 444.182 74.337C441.083 75.4785 437.919 76.0495 434.69 76.0495C429.341 76.0495 425.068 74.5327 421.871 71.4992C418.707 68.4329 417.125 64.5026 417.125 59.7076C417.125 54.0648 419.327 49.7103 423.73 46.644C428.167 43.5777 434.396 42.0448 442.421 42.0448H449.417V40.0878C449.417 37.3806 448.537 35.3745 446.775 34.0696C445.047 32.7647 442.502 32.1125 439.142 32.1125C437.479 32.1125 435.343 32.3572 432.733 32.8465C430.124 33.303 427.514 33.9718 424.905 34.8525L421.333 24.5776C424.693 23.3055 428.183 22.3431 431.803 21.6909C435.457 21.0387 438.719 20.7124 441.589 20.7124C449.319 20.7124 455.028 22.2942 458.714 25.4584C462.432 28.5897 464.291 33.1238 464.291 39.0602V59.4141ZM440.023 64.9919C441.687 64.9919 443.432 64.5026 445.258 63.5241C447.085 62.5127 448.471 61.0938 449.417 59.2673V50.8518H445.601C441.295 50.8518 438.132 51.5206 436.109 52.8578C434.087 54.1627 433.075 56.0871 433.075 58.6313C433.075 60.6212 433.679 62.1869 434.886 63.3283C436.126 64.4375 437.838 64.9919 440.023 64.9919ZM522.124 71.3525C520.101 72.6574 517.655 73.766 514.785 74.6795C511.914 75.593 508.685 76.0495 505.097 76.0495C498.313 76.0495 493.273 74.3209 489.978 70.8632C486.684 67.3732 485.037 62.6433 485.037 56.6742V44.2466H474.126V33.5803H485.037V22.3271L500.498 20.4678V33.5803H517.231L515.714 44.2466H500.498V56.6742C500.498 59.2512 501.085 61.0939 502.259 62.203C503.433 63.3122 505.309 63.8665 507.886 63.8665C509.713 63.8665 511.376 63.6547 512.876 63.2305C514.41 62.774 515.78 62.203 516.986 61.518L522.124 71.3525ZM569.143 44.6869L568.578 50.0689H574.693V60.2459H567.208L565.348 74.3859H552.578L554.437 60.2459H545.141L543.282 74.3859H530.512L532.273 60.2459H526.451V50.0689H533.643L534.307 44.6869H528.191V34.4611H535.677L537.438 20.5656H550.306L548.398 34.4611H557.743L559.602 20.5656H572.372L570.513 34.4611H576.433V44.6869H569.143ZM546.413 50.0689H555.71L556.373 44.6869H547.077L546.413 50.0689ZM611.008 20.7124C616.358 20.7124 620.908 21.8539 624.659 24.1373C628.41 26.4208 631.281 29.6334 633.271 33.7761C635.26 37.886 636.255 42.7137 636.255 48.2586C636.255 54.0321 635.244 59.0065 633.222 63.1815C631.232 67.3242 628.361 70.5046 624.61 72.7225C620.859 74.9403 616.325 76.0495 611.008 76.0495C605.724 76.0495 601.19 74.9569 597.407 72.7713C593.655 70.5857 590.769 67.4221 588.746 63.2794C586.757 59.1366 585.762 54.1627 585.762 48.3565C585.762 42.8438 586.757 38.0166 588.746 33.8739C590.769 29.7312 593.655 26.502 597.407 24.1862C601.19 21.8705 605.724 20.7124 611.008 20.7124ZM611.008 32.1125C607.844 32.1125 605.496 33.4175 603.963 36.0268C602.462 38.6038 601.712 42.7137 601.712 48.3565C601.712 54.0972 602.462 58.256 603.963 60.833C605.496 63.4101 607.844 64.6983 611.008 64.6983C614.172 64.6983 616.505 63.4101 618.005 60.833C619.538 58.256 620.305 54.0649 620.305 48.2586C620.305 42.6481 619.538 38.5548 618.005 35.9778C616.505 33.4008 614.172 32.1125 611.008 32.1125ZM647.177 74.3859V22.4248H660.681L661.757 28.4429C664.073 25.8336 666.519 23.8927 669.096 22.6206C671.673 21.3485 674.608 20.7124 677.901 20.7124C682.339 20.7124 685.827 22.0662 688.371 24.7734C690.916 27.4805 692.188 31.2969 692.188 36.2225V74.3859H676.727V40.6748C676.727 38.5548 676.58 36.8747 676.286 35.6353C675.993 34.3632 675.474 33.4663 674.721 32.9442C674.006 32.3899 673.008 32.1125 671.738 32.1125C670.662 32.1125 669.602 32.3572 668.558 32.8465C667.547 33.303 666.552 33.9718 665.573 34.8525C664.595 35.7332 663.616 36.7934 662.638 38.0328V74.3859H647.177Z" stroke="white" stroke-width="3.69846" mask="url(#path-10-inside-1_48_64)"/>
<path d="M387.378 45.2738L404.453 22.2778H388.258L371.183 45.7631L388.258 74.239H405.872L387.378 45.2738Z" fill="white"/>
<path d="M370.595 74.239V20.5654L355.134 22.18V74.239H370.595Z" fill="white"/>
<path d="M317.303 64.8449C319.88 64.8449 321.951 64.4373 323.517 63.6217C325.115 62.8061 325.914 61.5829 325.914 59.9521C325.914 58.8429 325.604 57.9133 324.984 57.1633C324.365 56.4132 323.174 55.6954 321.413 55.0104C319.651 54.3255 317.042 53.5098 313.584 52.564C310.421 51.7161 307.615 50.6397 305.169 49.3349C302.755 48.0299 300.863 46.3502 299.493 44.2953C298.156 42.2403 297.487 39.68 297.487 36.6137C297.487 33.5151 298.352 30.7585 300.08 28.3449C301.809 25.9313 304.354 24.0393 307.713 22.6693C311.073 21.2665 315.183 20.5654 320.043 20.5654C324.675 20.5654 328.703 21.1687 332.128 22.3757C335.586 23.55 338.57 25.0505 341.082 26.877L334.917 35.9776C332.764 34.6404 330.448 33.5801 327.969 32.7973C325.49 31.9817 322.995 31.5741 320.483 31.5741C317.972 31.5741 316.096 31.9166 314.856 32.6016C313.65 33.2538 313.046 34.249 313.046 35.5862C313.046 36.4668 313.356 37.2335 313.976 37.8857C314.628 38.5056 315.835 39.1579 317.596 39.8429C319.358 40.4951 321.935 41.3107 325.327 42.2893C328.687 43.2351 331.606 44.3281 334.085 45.5674C336.597 46.8068 338.537 48.4703 339.907 50.558C341.277 52.613 341.962 55.3368 341.962 58.729C341.962 62.5125 340.837 65.6928 338.586 68.2698C336.336 70.8141 333.351 72.7223 329.633 73.9944C325.914 75.2665 321.837 75.9026 317.401 75.9026C312.378 75.9026 307.941 75.1848 304.092 73.7497C300.244 72.3147 296.965 70.4227 294.258 68.0741L302.037 59.365C304.06 60.9307 306.343 62.2355 308.887 63.2791C311.464 64.3228 314.269 64.8449 317.303 64.8449Z" fill="white"/>
<path d="M201.557 62.5452H227.586L226.118 74.239H183.307V63.3281L209.091 33.9226H185.459V22.2778H227.097V33.1398L201.557 62.5452Z" fill="white"/>
<path d="M275.584 54.668L290.909 22.2778H275.056L265.564 44.7845L254.018 22.2778H237.676L255.632 54.668H260.916C259.97 56.8858 258.786 58.3702 257.481 59.8053C256.209 61.2731 254.512 62.4312 252.392 63.2791C250.304 64.127 247.548 64.7632 244.123 65.1874L245.885 76.0982C251.169 75.8047 255.687 74.81 259.438 73.1137C263.221 71.4173 266.369 69.0038 268.881 65.8724C271.425 62.7738 273.627 58.8268 275.584 54.668Z" fill="white"/>
<defs>
<linearGradient id="paint0_linear_48_64" x1="-11.6618" y1="-31.0318" x2="115.975" y2="99.8817" gradientUnits="userSpaceOnUse">
<stop stop-color="#D40000"/>
<stop offset="1" stop-color="#AC0101"/>
</linearGradient>
</defs>
</svg>
