<svg width="509" height="56" viewBox="0 0 509 56" fill="none" xmlns="http://www.w3.org/2000/svg">
<mask id="path-1-inside-1_42_54" fill="white">
<path d="M280.985 38.9463C280.985 40.9034 281.246 42.3223 281.767 43.203C282.322 44.0837 283.203 44.7526 284.41 45.2091L281.229 55.386C278.163 55.0924 275.57 54.4236 273.45 53.38C271.363 52.3036 269.715 50.6889 268.508 48.5361C266.519 50.9174 263.974 52.695 260.875 53.8693C257.777 55.0108 254.613 55.5817 251.383 55.5817C246.034 55.5817 241.761 54.0649 238.564 51.0314C235.401 47.9651 233.818 44.0348 233.818 39.2399C233.818 33.597 236.02 29.2426 240.424 26.1763C244.86 23.11 251.09 21.577 259.114 21.577H266.111V19.62C266.111 16.9128 265.23 14.9067 263.468 13.6019C261.74 12.2969 259.196 11.6447 255.836 11.6447C254.172 11.6447 252.036 11.8894 249.426 12.3787C246.817 12.8352 244.208 13.504 241.598 14.3847L238.026 4.10987C241.386 2.83775 244.876 1.87536 248.497 1.22315C252.15 0.570947 255.412 0.244585 258.282 0.244585C266.013 0.244585 271.721 1.82643 275.407 4.99058C279.125 8.12194 280.985 12.6561 280.985 18.5924V38.9463ZM256.716 44.5241C258.38 44.5241 260.125 44.0348 261.952 43.0563C263.779 42.045 265.165 40.626 266.111 38.7996V30.384H262.294C257.989 30.384 254.825 31.0528 252.802 32.39C250.78 33.6949 249.769 35.6193 249.769 38.1636C249.769 40.1534 250.373 41.7191 251.579 42.8606C252.819 43.9698 254.531 44.5241 256.716 44.5241ZM338.817 50.8847C336.795 52.1896 334.348 53.2983 331.478 54.2117C328.608 55.1252 325.379 55.5817 321.79 55.5817C315.006 55.5817 309.966 53.8531 306.672 50.3954C303.377 46.9054 301.73 42.1756 301.73 36.2064V23.7788H290.819V13.1126H301.73V1.85928L317.191 0V13.1126H333.924L332.407 23.7788H317.191V36.2064C317.191 38.7834 317.778 40.6261 318.952 41.7353C320.127 42.8445 322.003 43.3987 324.579 43.3987C326.406 43.3987 328.07 43.1869 329.57 42.7627C331.103 42.3062 332.473 41.7353 333.68 41.0503L338.817 50.8847ZM385.836 24.2191L385.271 29.6011H391.387V39.7781H383.901L382.042 53.9181H369.272L371.131 39.7781H361.835L359.975 53.9181H347.205L348.967 39.7781H343.144V29.6011H350.337L351 24.2191H344.884V13.9933H352.37L354.131 0.0978567H366.999L365.091 13.9933H374.436L376.296 0.0978567H389.066L387.206 13.9933H393.127V24.2191H385.836ZM363.107 29.6011H372.403L373.066 24.2191H363.77L363.107 29.6011ZM427.702 0.244585C433.051 0.244585 437.601 1.38612 441.353 3.66957C445.103 5.95302 447.974 9.16558 449.964 13.3083C451.953 17.4182 452.949 22.2459 452.949 27.7909C452.949 33.5643 451.937 38.5387 449.915 42.7137C447.925 46.8564 445.054 50.0368 441.304 52.2547C437.552 54.4726 433.018 55.5817 427.702 55.5817C422.418 55.5817 417.884 54.4892 414.1 52.3036C410.349 50.118 407.462 46.9543 405.44 42.8116C403.45 38.6689 402.455 33.695 402.455 27.8887C402.455 22.376 403.45 17.5489 405.44 13.4061C407.462 9.26346 410.349 6.0342 414.1 3.71844C417.884 1.4027 422.418 0.244585 427.702 0.244585ZM427.702 11.6447C424.538 11.6447 422.189 12.9497 420.656 15.559C419.156 18.136 418.406 22.2459 418.406 27.8887C418.406 33.6294 419.156 37.7883 420.656 40.3653C422.189 42.9423 424.538 44.2306 427.702 44.2306C430.866 44.2306 433.198 42.9423 434.699 40.3653C436.231 37.7883 436.998 33.5971 436.998 27.7909C436.998 22.1803 436.231 18.087 434.699 15.51C433.198 12.933 430.866 11.6447 427.702 11.6447ZM463.87 53.9181V1.95702H477.374L478.451 7.97515C480.766 5.36583 483.213 3.42495 485.79 2.15285C488.366 0.880724 491.301 0.244585 494.594 0.244585C499.032 0.244585 502.521 1.59842 505.065 4.30558C507.609 7.01275 508.881 10.8292 508.881 15.7547V53.9181H493.42V20.207C493.42 18.087 493.273 16.4069 492.98 15.1676C492.686 13.8955 492.167 12.9985 491.414 12.4764C490.7 11.9221 489.701 11.6447 488.432 11.6447C487.355 11.6447 486.295 11.8894 485.252 12.3787C484.24 12.8352 483.245 13.504 482.267 14.3847C481.288 15.2654 480.31 16.3257 479.331 17.565V53.9181H463.87Z"/>
</mask>
<path d="M280.985 38.9463C280.985 40.9034 281.246 42.3223 281.767 43.203C282.322 44.0837 283.203 44.7526 284.41 45.2091L281.229 55.386C278.163 55.0924 275.57 54.4236 273.45 53.38C271.363 52.3036 269.715 50.6889 268.508 48.5361C266.519 50.9174 263.974 52.695 260.875 53.8693C257.777 55.0108 254.613 55.5817 251.383 55.5817C246.034 55.5817 241.761 54.0649 238.564 51.0314C235.401 47.9651 233.818 44.0348 233.818 39.2399C233.818 33.597 236.02 29.2426 240.424 26.1763C244.86 23.11 251.09 21.577 259.114 21.577H266.111V19.62C266.111 16.9128 265.23 14.9067 263.468 13.6019C261.74 12.2969 259.196 11.6447 255.836 11.6447C254.172 11.6447 252.036 11.8894 249.426 12.3787C246.817 12.8352 244.208 13.504 241.598 14.3847L238.026 4.10987C241.386 2.83775 244.876 1.87536 248.497 1.22315C252.15 0.570947 255.412 0.244585 258.282 0.244585C266.013 0.244585 271.721 1.82643 275.407 4.99058C279.125 8.12194 280.985 12.6561 280.985 18.5924V38.9463ZM256.716 44.5241C258.38 44.5241 260.125 44.0348 261.952 43.0563C263.779 42.045 265.165 40.626 266.111 38.7996V30.384H262.294C257.989 30.384 254.825 31.0528 252.802 32.39C250.78 33.6949 249.769 35.6193 249.769 38.1636C249.769 40.1534 250.373 41.7191 251.579 42.8606C252.819 43.9698 254.531 44.5241 256.716 44.5241ZM338.817 50.8847C336.795 52.1896 334.348 53.2983 331.478 54.2117C328.608 55.1252 325.379 55.5817 321.79 55.5817C315.006 55.5817 309.966 53.8531 306.672 50.3954C303.377 46.9054 301.73 42.1756 301.73 36.2064V23.7788H290.819V13.1126H301.73V1.85928L317.191 0V13.1126H333.924L332.407 23.7788H317.191V36.2064C317.191 38.7834 317.778 40.6261 318.952 41.7353C320.127 42.8445 322.003 43.3987 324.579 43.3987C326.406 43.3987 328.07 43.1869 329.57 42.7627C331.103 42.3062 332.473 41.7353 333.68 41.0503L338.817 50.8847ZM385.836 24.2191L385.271 29.6011H391.387V39.7781H383.901L382.042 53.9181H369.272L371.131 39.7781H361.835L359.975 53.9181H347.205L348.967 39.7781H343.144V29.6011H350.337L351 24.2191H344.884V13.9933H352.37L354.131 0.0978567H366.999L365.091 13.9933H374.436L376.296 0.0978567H389.066L387.206 13.9933H393.127V24.2191H385.836ZM363.107 29.6011H372.403L373.066 24.2191H363.77L363.107 29.6011ZM427.702 0.244585C433.051 0.244585 437.601 1.38612 441.353 3.66957C445.103 5.95302 447.974 9.16558 449.964 13.3083C451.953 17.4182 452.949 22.2459 452.949 27.7909C452.949 33.5643 451.937 38.5387 449.915 42.7137C447.925 46.8564 445.054 50.0368 441.304 52.2547C437.552 54.4726 433.018 55.5817 427.702 55.5817C422.418 55.5817 417.884 54.4892 414.1 52.3036C410.349 50.118 407.462 46.9543 405.44 42.8116C403.45 38.6689 402.455 33.695 402.455 27.8887C402.455 22.376 403.45 17.5489 405.44 13.4061C407.462 9.26346 410.349 6.0342 414.1 3.71844C417.884 1.4027 422.418 0.244585 427.702 0.244585ZM427.702 11.6447C424.538 11.6447 422.189 12.9497 420.656 15.559C419.156 18.136 418.406 22.2459 418.406 27.8887C418.406 33.6294 419.156 37.7883 420.656 40.3653C422.189 42.9423 424.538 44.2306 427.702 44.2306C430.866 44.2306 433.198 42.9423 434.699 40.3653C436.231 37.7883 436.998 33.5971 436.998 27.7909C436.998 22.1803 436.231 18.087 434.699 15.51C433.198 12.933 430.866 11.6447 427.702 11.6447ZM463.87 53.9181V1.95702H477.374L478.451 7.97515C480.766 5.36583 483.213 3.42495 485.79 2.15285C488.366 0.880724 491.301 0.244585 494.594 0.244585C499.032 0.244585 502.521 1.59842 505.065 4.30558C507.609 7.01275 508.881 10.8292 508.881 15.7547V53.9181H493.42V20.207C493.42 18.087 493.273 16.4069 492.98 15.1676C492.686 13.8955 492.167 12.9985 491.414 12.4764C490.7 11.9221 489.701 11.6447 488.432 11.6447C487.355 11.6447 486.295 11.8894 485.252 12.3787C484.24 12.8352 483.245 13.504 482.267 14.3847C481.288 15.2654 480.31 16.3257 479.331 17.565V53.9181H463.87Z" stroke="#D40000" stroke-width="3.69846" mask="url(#path-1-inside-1_42_54)"/>
<path d="M204.071 24.806L221.147 1.81006H204.952L187.876 25.2953L204.952 53.7712H222.566L204.071 24.806Z" fill="#D40000"/>
<path d="M187.288 53.7712V0.0976562L171.827 1.71224V53.7712H187.288Z" fill="#D40000"/>
<path d="M133.996 44.3771C136.573 44.3771 138.644 43.9696 140.21 43.1539C141.808 42.3383 142.607 41.1151 142.607 39.4844C142.607 38.3752 142.298 37.4456 141.678 36.6955C141.058 35.9454 139.867 35.2276 138.106 34.5427C136.345 33.8577 133.735 33.042 130.278 32.0962C127.114 31.2483 124.308 30.172 121.862 28.8671C119.448 27.5622 117.556 25.8825 116.186 23.8275C114.849 21.7726 114.18 19.2122 114.18 16.1459C114.18 13.0473 115.045 10.2907 116.774 7.8771C118.503 5.4635 121.047 3.5715 124.406 2.20152C127.766 0.798765 131.876 0.0976562 136.736 0.0976562C141.368 0.0976562 145.396 0.700918 148.821 1.90795C152.279 3.08221 155.263 4.58278 157.775 6.40924L151.61 15.5098C149.457 14.1726 147.141 13.1124 144.662 12.3295C142.184 11.5139 139.688 11.1064 137.176 11.1064C134.665 11.1064 132.79 11.4488 131.55 12.1338C130.343 12.786 129.739 13.7812 129.739 15.1184C129.739 15.9991 130.05 16.7657 130.669 17.418C131.322 18.0379 132.528 18.6901 134.29 19.3751C136.051 20.0273 138.628 20.8429 142.02 21.8215C145.38 22.7673 148.3 23.8603 150.778 25.0997C153.29 26.339 155.231 28.0025 156.601 30.0902C157.971 32.1452 158.656 34.8691 158.656 38.2612C158.656 42.0448 157.53 45.2251 155.28 47.8021C153.029 50.3463 150.044 52.2545 146.326 53.5266C142.607 54.7987 138.53 55.4348 134.094 55.4348C129.071 55.4348 124.635 54.717 120.786 53.2819C116.937 51.8469 113.659 49.9549 110.951 47.6064L118.731 38.8972C120.753 40.4629 123.036 41.7677 125.581 42.8114C128.158 43.855 130.963 44.3771 133.996 44.3771Z" fill="#D40000"/>
<path d="M18.25 42.0775H44.2795L42.8117 53.7712H0V42.8603L25.7848 13.4548H2.15285V1.81006H43.7903V12.672L18.25 42.0775Z" fill="#D40000"/>
<path d="M92.2773 34.2002L107.602 1.81006H91.7498L82.2579 24.3168L70.7109 1.81006H54.3691L72.3256 34.2002H77.6097C76.6634 36.4181 75.4789 37.9024 74.174 39.3375C72.9019 40.8053 71.2056 41.9634 69.0856 42.8113C66.9978 43.6593 64.2417 44.2954 60.8167 44.7196L62.5782 55.6305C67.8623 55.3369 72.3799 54.3422 76.1311 52.6459C79.9147 50.9496 83.0627 48.536 85.5741 45.4046C88.1184 42.306 90.3202 38.359 92.2773 34.2002Z" fill="#D40000"/>
</svg>
