<svg width="223" height="56" viewBox="0 0 223 56" fill="none" xmlns="http://www.w3.org/2000/svg">
<path d="M204.071 24.806L221.147 1.81006H204.952L187.876 25.2953L204.952 53.7712H222.566L204.071 24.806Z" fill="#D40000"/>
<path d="M187.288 53.7712V0.0976562L171.827 1.71224V53.7712H187.288Z" fill="#D40000"/>
<path d="M133.996 44.3771C136.573 44.3771 138.644 43.9696 140.21 43.1539C141.808 42.3383 142.607 41.1151 142.607 39.4844C142.607 38.3752 142.298 37.4456 141.678 36.6955C141.058 35.9454 139.867 35.2276 138.106 34.5427C136.345 33.8577 133.735 33.042 130.278 32.0962C127.114 31.2483 124.308 30.172 121.862 28.8671C119.448 27.5622 117.556 25.8825 116.186 23.8275C114.849 21.7726 114.18 19.2122 114.18 16.1459C114.18 13.0473 115.045 10.2907 116.774 7.8771C118.503 5.4635 121.047 3.5715 124.406 2.20152C127.766 0.798765 131.876 0.0976562 136.736 0.0976562C141.368 0.0976562 145.396 0.700918 148.821 1.90795C152.279 3.08221 155.263 4.58278 157.775 6.40924L151.61 15.5098C149.457 14.1726 147.141 13.1124 144.662 12.3295C142.184 11.5139 139.688 11.1064 137.176 11.1064C134.665 11.1064 132.79 11.4488 131.55 12.1338C130.343 12.786 129.739 13.7812 129.739 15.1184C129.739 15.9991 130.05 16.7657 130.669 17.418C131.322 18.0379 132.528 18.6901 134.29 19.3751C136.051 20.0273 138.628 20.8429 142.02 21.8215C145.38 22.7673 148.3 23.8603 150.778 25.0997C153.29 26.339 155.231 28.0025 156.601 30.0902C157.971 32.1452 158.656 34.8691 158.656 38.2612C158.656 42.0448 157.53 45.2251 155.28 47.8021C153.029 50.3463 150.044 52.2545 146.326 53.5266C142.607 54.7987 138.53 55.4348 134.094 55.4348C129.071 55.4348 124.635 54.717 120.786 53.2819C116.937 51.8469 113.659 49.9549 110.951 47.6064L118.731 38.8972C120.753 40.4629 123.036 41.7677 125.581 42.8114C128.158 43.855 130.963 44.3771 133.996 44.3771Z" fill="#D40000"/>
<path d="M18.25 42.0775H44.2795L42.8117 53.7712H0V42.8603L25.7848 13.4548H2.15285V1.81006H43.7903V12.672L18.25 42.0775Z" fill="#D40000"/>
<path d="M92.2773 34.2002L107.602 1.81006H91.7498L82.2579 24.3168L70.7109 1.81006H54.3691L72.3256 34.2002H77.6097C76.6634 36.4181 75.4789 37.9024 74.174 39.3375C72.9019 40.8053 71.2056 41.9634 69.0856 42.8113C66.9978 43.6593 64.2417 44.2954 60.8167 44.7196L62.5782 55.6305C67.8623 55.3369 72.3799 54.3422 76.1311 52.6459C79.9147 50.9496 83.0627 48.536 85.5741 45.4046C88.1184 42.306 90.3202 38.359 92.2773 34.2002Z" fill="#D40000"/>
</svg>
